<svg viewBox="0 0 200 200" xmlns="http://www.w3.org/2000/svg" role="img" aria-label="Laurel medallion, initials M A">
  <circle cx="100" cy="100" r="90" fill="none" stroke="#4F7A66" stroke-width="1.5"/>
  <g transform="translate(114.6 168.5) rotate(-12.0)"><path d="M 13.0 0 Q 0 -4.6 -13.0 0 Q 0 4.6 13.0 0 Z" fill="#8E7235"/></g>
  <g transform="translate(89.2 169.2) rotate(8.9)"><path d="M 12.6 0 Q 0 -4.5 -12.6 0 Q 0 4.5 12.6 0 Z" fill="#8E7235"/></g>
  <g transform="translate(65.3 160.8) rotate(29.7)"><path d="M 12.2 0 Q 0 -4.3 -12.2 0 Q 0 4.3 12.2 0 Z" fill="#8E7235"/></g>
  <g transform="translate(45.9 144.5) rotate(50.6)"><path d="M 11.8 0 Q 0 -4.2 -11.8 0 Q 0 4.2 11.8 0 Z" fill="#8E7235"/></g>
  <g transform="translate(33.6 122.3) rotate(71.4)"><path d="M 11.4 0 Q 0 -4.0 -11.4 0 Q 0 4.0 11.4 0 Z" fill="#8E7235"/></g>
  <g transform="translate(30.1 97.2) rotate(92.3)"><path d="M 11.0 0 Q 0 -3.9 -11.0 0 Q 0 3.9 11.0 0 Z" fill="#8E7235"/></g>
  <g transform="translate(35.6 72.5) rotate(113.1)"><path d="M 10.5 0 Q 0 -3.7 -10.5 0 Q 0 3.7 10.5 0 Z" fill="#8E7235"/></g>
  <g transform="translate(49.6 51.4) rotate(134.0)"><path d="M 10.1 0 Q 0 -3.6 -10.1 0 Q 0 3.6 10.1 0 Z" fill="#8E7235"/></g>
  <g transform="translate(85.4 168.5) rotate(192.0)"><path d="M 13.0 0 Q 0 -4.6 -13.0 0 Q 0 4.6 13.0 0 Z" fill="#8E7235"/></g>
  <g transform="translate(110.8 169.2) rotate(171.1)"><path d="M 12.6 0 Q 0 -4.5 -12.6 0 Q 0 4.5 12.6 0 Z" fill="#8E7235"/></g>
  <g transform="translate(134.7 160.8) rotate(150.3)"><path d="M 12.2 0 Q 0 -4.3 -12.2 0 Q 0 4.3 12.2 0 Z" fill="#8E7235"/></g>
  <g transform="translate(154.1 144.5) rotate(129.4)"><path d="M 11.8 0 Q 0 -4.2 -11.8 0 Q 0 4.2 11.8 0 Z" fill="#8E7235"/></g>
  <g transform="translate(166.4 122.3) rotate(108.6)"><path d="M 11.4 0 Q 0 -4.0 -11.4 0 Q 0 4.0 11.4 0 Z" fill="#8E7235"/></g>
  <g transform="translate(169.9 97.2) rotate(87.7)"><path d="M 11.0 0 Q 0 -3.9 -11.0 0 Q 0 3.9 11.0 0 Z" fill="#8E7235"/></g>
  <g transform="translate(164.4 72.5) rotate(66.9)"><path d="M 10.5 0 Q 0 -3.7 -10.5 0 Q 0 3.7 10.5 0 Z" fill="#8E7235"/></g>
  <g transform="translate(150.4 51.4) rotate(46.0)"><path d="M 10.1 0 Q 0 -3.6 -10.1 0 Q 0 3.6 10.1 0 Z" fill="#8E7235"/></g>
  <text x="100" y="109" font-family="Georgia, 'Times New Roman', serif" font-size="28" fill="#2A2724" text-anchor="middle" letter-spacing="2">M&#183;A</text>
</svg>